<svg width="368" height="368" viewBox="0 0 368 368" fill="none" xmlns="http://www.w3.org/2000/svg">
<mask id="mask0_75_3016" style="mask-type:alpha" maskUnits="userSpaceOnUse" x="0" y="0" width="368" height="368">
<circle cx="184" cy="184" r="184" transform="matrix(-1 0 0 1 368 0)" fill="black"/>
</mask>
<g mask="url(#mask0_75_3016)">
<path d="M84.0627 334.808C84.9045 335.409 85.8666 336.01 86.7084 336.612C87.6705 337.213 88.5123 337.814 89.4744 338.295C90.3163 338.776 91.0378 339.258 91.8797 339.739C91.9999 339.859 92.1202 339.859 92.2404 339.979C95.0065 341.663 97.8927 343.226 100.779 344.669C101.621 345.15 102.583 345.631 103.425 345.992C103.425 345.992 103.545 346.112 103.665 346.112C104.627 346.593 105.589 347.075 106.552 347.556C108.476 348.518 110.52 349.36 112.444 350.201C113.406 350.682 114.489 351.043 115.451 351.404C116.413 351.765 117.495 352.246 118.457 352.607C119.42 352.967 120.502 353.448 121.464 353.809C121.464 353.809 121.464 353.809 121.584 353.809C122.546 354.17 123.629 354.531 124.591 354.892C126.755 355.613 129.04 356.335 131.205 357.056C131.927 357.297 132.769 357.537 133.49 357.778C135.775 358.499 138.06 359.101 140.345 359.582C141.187 359.822 142.029 359.943 142.991 360.183C145.155 360.664 147.44 361.145 149.605 361.626C150.086 361.746 150.447 361.746 150.928 361.867C151.65 361.987 152.491 362.107 153.213 362.228C154.295 362.348 155.257 362.588 156.34 362.709C156.821 362.829 157.302 362.829 157.783 362.949C158.384 363.069 159.106 363.19 159.827 363.19C161.752 363.43 163.796 363.671 165.72 363.911C166.321 364.031 167.043 364.031 167.644 364.152H167.765C168.606 364.272 169.448 364.272 170.29 364.392C171.132 364.512 171.974 364.512 172.816 364.512C173.297 364.512 173.898 364.633 174.379 364.633C175.341 364.633 176.183 364.753 177.025 364.753C178.227 364.753 179.31 364.873 180.512 364.873C181.715 364.873 182.797 364.873 184 364.873C184.842 364.873 185.684 364.873 186.525 364.873C237.276 364.152 282.855 342.625 315.446 308.471C315.446 308.471 315.446 308.35 315.566 308.35C319.174 305.103 316.047 287.786 301.495 276.842C283.216 263.012 239.44 254.353 239.44 254.353C239.44 254.353 222.484 251.587 159.587 264.695C122.787 272.392 94.7659 283.577 79.132 313.882C75.8849 320.136 72.6378 329.757 84.0627 334.808Z" fill="white"/>
<path d="M159.226 263.373C136.136 268.063 111.482 273.114 92.4809 288.387C86.107 293.558 81.8979 301.135 78.4103 308.471C76.7267 312.078 75.043 315.807 73.7201 319.775C72.9986 322.421 71.9162 325.428 72.5175 328.554C72.6378 329.396 73.3593 330.478 73.9606 331.08C76.7267 333.846 79.7332 335.529 82.7397 337.694C100.418 349.961 120.742 358.62 141.788 363.19C188.69 373.412 239.44 365.475 280.69 340.821C294.4 332.523 307.027 322.421 317.851 310.515C319.053 309.072 319.053 306.667 319.053 305.103C318.933 301.495 317.971 298.008 316.769 294.761C313.882 287.305 310.154 279.848 303.78 274.677C299.21 271.55 294.28 268.905 289.229 266.74C273.354 260.005 256.638 255.315 239.44 253.391C237.997 253.271 237.757 255.315 239.2 255.556C255.676 258.923 272.031 263.974 287.304 270.829C292.836 273.595 298.729 276 303.179 280.329C307.388 284.899 310.395 290.552 312.8 296.324C314.363 299.812 315.446 305.344 314.965 308.11C307.388 317.129 298.489 325.067 288.868 331.922C236.193 368.722 156.219 371.127 100.178 340.46C95.1267 337.694 90.1959 334.567 85.5057 331.32C83.2208 329.757 80.8155 328.434 79.0116 326.63C78.8914 326.51 79.0116 326.63 79.0116 326.75C79.0116 326.871 79.1319 326.991 79.1319 326.991C79.0116 325.548 79.4927 323.624 80.094 321.699C82.2587 314.724 85.7463 307.388 89.4744 301.014C95.3672 291.514 105.349 285.501 115.451 280.69C122.426 277.443 129.762 274.918 137.218 272.512C144.674 270.107 152.251 268.063 159.827 266.259C161.751 265.778 161.15 263.012 159.226 263.373Z" fill="black"/>
<rect width="368" height="368" transform="matrix(-1 0 0 1 368 0)" fill="#FEF0AA"/>
<path d="M67.5873 351.885C69.8723 334.086 79.9742 304.141 86.1076 296.083C92.8422 287.304 95.6082 284.538 118.097 276.962C119.3 270.949 123.749 255.796 129.041 249.422C137.098 237.276 159.106 234.51 165.721 235.953C165.721 235.953 201.318 223.446 242.327 223.446C255.315 226.332 270.348 232.225 278.526 244.612C284.058 252.789 277.804 255.435 280.57 262.891C281.292 264.815 298.128 274.436 304.983 280.209C308.11 282.734 311.598 289.108 314.003 297.406C318.813 314.363 313.642 337.814 319.655 358.259C331.2 397.704 354.651 409.49 354.651 409.49H43.8958C44.1363 409.37 62.6566 389.406 67.5873 351.885Z" fill="#FFE380"/>
<path d="M69.3909 352.126C71.7961 336.371 76.6066 320.737 82.7399 306.065C85.7464 298.97 90.3164 292.115 96.6902 287.906C99.9373 285.862 103.545 284.298 107.273 282.735C111.001 281.292 114.85 279.969 118.578 278.646C119.179 278.405 119.66 277.924 119.78 277.323C120.261 274.918 120.863 272.633 121.584 270.228C124.711 260.486 128.078 249.663 137.218 244.011C144.193 239.801 152.492 237.757 160.549 237.396C162.112 237.396 163.796 237.396 165.239 237.637H165.72C165.841 237.637 166.081 237.637 166.201 237.516C171.974 234.75 178.348 233.067 184.601 231.383C203.362 227.054 222.965 225.25 242.207 225.13C253.992 227.896 270.468 234.39 277.684 246.416C278.886 248.34 279.488 250.264 279.247 252.429C279.007 254.834 278.165 257.48 278.766 260.005C279.007 261.088 279.247 262.29 279.728 263.252C280.69 264.575 282.254 265.417 283.456 266.259C289.71 270.348 296.084 273.956 302.097 278.165C304.141 279.608 306.065 280.931 307.509 282.975C311.718 288.988 314.243 296.204 315.326 303.42C317.25 318.092 315.326 333.004 317.25 347.676C319.414 362.348 325.067 376.539 333.004 389.046C338.536 397.464 345.271 405.281 353.809 410.693L354.651 407.326H43.8954L45.2183 410.332C48.8262 406.243 51.7125 401.794 54.3582 397.103C62.536 383.394 67.3464 367.88 69.3909 352.126ZM65.783 351.645C64.4601 361.867 61.9346 371.969 58.0863 381.59C54.2379 391.09 49.4275 400.35 42.6928 408.167C41.7307 409.25 42.5726 411.294 44.0157 411.174H354.771C355.733 411.174 356.575 410.332 356.575 409.37C356.575 408.648 356.214 408.047 355.613 407.807C353.689 406.724 351.765 405.161 349.961 403.598C334.207 389.407 324.345 368.361 321.098 347.435C318.332 327.833 323.503 306.667 314.724 288.026C312.68 283.697 310.154 279.127 306.065 276.361C298.609 270.829 290.431 266.74 283.095 261.328C282.975 261.328 282.975 261.208 282.975 261.208C283.095 261.328 283.216 261.569 283.216 261.689C282.494 260.005 282.254 258.562 282.494 256.638C282.855 254.233 283.456 250.986 282.614 248.46C282.254 247.017 281.532 245.694 280.81 244.612C272.152 231.624 256.878 225.851 242.327 222.604C238.238 222.724 234.029 222.003 229.94 222.003C224.288 222.003 218.515 222.845 212.863 223.566C196.627 226.092 180.993 230.421 164.999 233.909L166.081 233.788C162.353 233.067 158.865 233.428 155.258 233.909C132.167 237.396 124.35 247.498 118.097 269.025C117.375 271.43 116.774 273.835 116.173 276.361L117.375 274.918C105.83 279.007 92.8419 282.735 85.5059 293.438C82.8602 296.685 80.936 300.533 79.2523 304.382C73.119 319.775 68.3085 335.289 65.783 351.645Z" fill="black"/>
<path d="M257.119 272.753C248.219 291.755 234.389 307.87 217.914 320.617C217.312 321.099 217.914 322.061 218.635 321.7C233.307 314.725 245.694 302.819 253.03 288.387C255.435 283.577 257.48 278.406 258.201 272.994C258.442 272.393 257.48 272.152 257.119 272.753Z" fill="black"/>
<path d="M116.293 276.722C115.932 296.806 124.11 317.37 139.744 330.358C140.104 330.719 140.585 330.599 140.946 330.238C141.307 329.877 141.187 329.396 140.826 329.036C137.338 325.668 133.851 322.181 131.205 318.092C125.673 310.155 122.306 300.774 120.742 291.273C120.021 286.583 119.54 281.532 119.9 276.842C120.021 274.557 116.413 274.317 116.293 276.722Z" fill="black"/>
<path d="M187.127 324.465C189.893 334.207 192.178 344.79 190.855 354.892C190.494 357.177 193.982 357.778 194.463 355.373C195.064 349.841 194.342 344.429 193.38 339.137C192.298 333.846 190.975 328.795 189.171 323.744C188.69 322.541 186.646 323.143 187.127 324.465Z" fill="black"/>
<path d="M148.884 322.662C144.915 331.2 142.149 340.099 139.984 349.119C139.744 350.081 140.345 351.043 141.307 351.284C142.269 351.524 143.231 350.923 143.472 349.961C144.675 343.226 146.238 336.492 148.403 329.877C149.124 327.713 149.846 325.548 150.688 323.383C151.169 322.301 149.485 321.459 148.884 322.662Z" fill="black"/>
<path d="M278.045 262.411C273.595 286.703 256.518 307.268 235.953 320.377C228.978 324.826 221.522 328.675 213.825 331.801C213.344 332.042 213.103 332.523 213.344 333.004C213.464 333.485 214.065 333.726 214.426 333.485C222.363 330.599 230.06 326.991 237.276 322.662C251.948 314.003 264.816 301.977 273.475 287.305C277.924 279.728 281.412 271.791 283.095 263.132C283.336 261.689 282.374 260.366 280.931 260.126C279.608 259.765 278.165 260.847 278.045 262.411Z" fill="black"/>
<path d="M194.343 357.537C197.71 357.177 200.116 354.05 199.394 350.683L198.071 344.309C197.59 341.783 195.185 339.979 192.659 340.34C190.134 340.581 188.089 342.745 188.089 345.391V351.885C187.969 355.252 190.855 357.898 194.343 357.537Z" fill="black"/>
<path d="M138.902 353.088C142.149 354.29 145.637 352.366 146.479 348.999L148.042 342.625C148.643 340.099 147.32 337.574 144.795 336.612C142.39 335.77 139.624 336.852 138.541 339.137L135.655 345.03C134.212 348.277 135.655 352.005 138.902 353.088Z" fill="black"/>
<path d="M83.3413 349.48C83.3413 349.48 76.6067 387.242 79.2524 409.37" stroke="black" stroke-width="5.1257" stroke-miterlimit="10" stroke-linecap="round" stroke-linejoin="round"/>
<path d="M240.403 258.081C242.087 253.271 242.808 248.34 242.448 243.289C242.448 242.808 242.087 242.568 241.606 242.568C241.245 242.568 240.884 242.928 240.884 243.289C240.523 247.859 239.201 252.549 237.036 256.518C235.953 258.923 239.561 260.487 240.403 258.081Z" fill="black"/>
<path d="M159.106 264.455C162.474 256.879 170.772 253.03 178.108 250.385C182.678 248.941 187.729 247.859 192.539 247.138C204.204 245.334 220.68 242.568 232.346 241.365C232.466 241.365 232.466 241.124 232.346 241.124C228.978 240.764 225.611 240.764 222.244 240.764C212.142 241.004 202.04 242.087 192.058 243.65C182.076 245.213 171.373 248.22 163.797 255.436C161.391 257.961 159.227 260.847 158.625 264.335C158.505 264.696 158.986 264.816 159.106 264.455Z" fill="black"/>
<path d="M147.922 295.362C150.448 307.749 166.803 315.205 194.343 304.021C222.966 292.476 235.352 264.936 238.479 256.758C221.522 225.009 233.308 203.001 233.308 203.001C194.223 199.634 160.069 245.333 160.069 245.333L154.777 267.943C154.296 269.867 153.334 271.55 151.891 272.753C149.366 277.203 146.359 287.425 147.922 295.362Z" fill="white"/>
<path d="M239.08 257.119C236.795 253.631 235.352 249.543 234.39 245.574C232.586 237.276 231.985 228.858 231.864 220.439V217.312C232.225 214.186 233.307 210.939 234.51 208.052C236.073 204.204 230.421 201.799 228.617 205.647C228.377 206.128 228.377 206.97 228.377 207.451C228.016 223.807 227.294 244.852 237.637 258.442C238.358 259.163 239.802 258.081 239.08 257.119Z" fill="black"/>
<path d="M158.746 245.093C156.942 246.175 156.34 247.618 156.1 249.062C155.378 251.948 155.619 255.075 154.897 258.081C154.296 260.967 152.492 263.734 152.011 266.74C151.41 269.867 149.606 276.481 148.884 279.728C148.644 280.45 149.125 281.292 149.967 281.412C150.448 281.532 150.808 281.412 151.169 281.171C152.733 279.849 153.454 278.526 154.416 276.842C155.98 273.956 157.062 271.31 158.024 268.063C158.866 265.177 158.505 262.05 159.227 259.043C159.828 256.157 161.512 253.391 162.113 250.384C162.474 248.941 162.594 247.378 161.512 245.574C160.79 244.852 159.587 244.612 158.746 245.093Z" fill="black"/>
<path d="M150.086 276.842C173.056 275.639 191.817 268.424 210.097 235.833C194.703 249.422 176.544 254.594 157.422 256.999L154.897 268.063C154.416 269.987 151.53 275.639 150.086 276.842Z" fill="black"/>
<path d="M151.048 272.392C146.959 280.089 144.554 289.71 147.08 298.248C149.004 304.262 154.536 308.711 160.549 310.395C174.499 314.123 190.614 308.23 203.001 301.616C218.274 293.077 229.579 278.766 236.795 263.132C237.276 261.93 235.592 260.967 234.87 262.17C232.345 267.221 229.459 272.152 226.212 276.601C222.964 281.171 219.236 285.38 215.027 289.109C202.761 300.173 186.164 307.028 169.568 307.028C152.491 306.547 145.997 297.527 149.966 280.931C150.567 278.285 151.529 275.519 152.852 273.234C153.574 272.272 151.77 271.19 151.048 272.392Z" fill="black"/>
<path d="M104.507 127.958C102.343 138.06 101.26 146.238 107.153 173.177C112.926 199.995 98.8549 205.527 132.167 248.46C145.757 266.018 178.709 261.088 205.407 242.928C214.426 236.795 218.275 221.041 225.009 209.856C230.301 201.077 232.706 210.217 239.681 202.641C249.182 192.298 260.607 171.493 254.954 134.693C245.814 75.0432 198.552 68.068 163.556 74.6824C128.319 81.4171 110.28 101.38 104.507 127.958Z" fill="white"/>
<path d="M233.668 213.344C236.434 208.654 240.042 204.565 243.409 200.235C246.656 195.786 249.302 190.855 251.467 185.804C265.778 150.688 260.246 101.26 225.13 80.5752C210.578 72.1569 193.02 70.1125 176.664 71.4354C141.668 73.9609 109.558 90.0759 101.982 127.116C97.8929 143.472 103.425 160.309 106.552 176.303C107.995 184.241 106.792 192.418 106.913 200.596C107.033 208.894 109.318 217.192 112.445 224.889C114.369 230.18 117.736 234.871 121.224 239.2C126.996 246.175 132.769 253.271 140.105 258.682C141.788 259.885 144.795 260.486 146.839 260.727C152.492 261.569 158.024 261.809 163.676 261.448C185.804 260.486 209.496 249.783 218.395 228.377C218.756 227.535 217.553 226.933 217.072 227.655C205.527 245.935 184.361 254.954 163.315 256.157C156.821 256.518 150.207 256.397 143.833 255.075C140.706 253.511 137.94 250.745 135.294 248.22C128.8 241.726 122.186 234.75 117.496 226.813C111.843 216.11 108.716 204.445 109.679 192.298C109.919 186.886 110.039 181.234 108.957 175.822C107.995 170.411 106.792 165.239 106.071 159.707C105.349 154.416 104.988 149.004 104.988 143.712C105.59 128.199 110.641 112.204 120.502 100.178C142.269 73.119 193.741 66.0236 222.724 84.5439C241.004 95.8484 249.543 117.014 252.309 137.579C256.518 162.233 255.315 186.526 235.713 204.445L229.94 210.458C227.655 213.103 231.744 216.23 233.668 213.344Z" fill="black"/>
<path d="M219.478 175.101C219.478 175.101 223.206 157.061 240.764 159.226C255.917 161.15 261.208 197.469 226.814 207.571" fill="white"/>
<path d="M228.377 191.817C231.143 190.254 233.067 187.608 233.187 184.361C233.067 181.956 232.706 179.19 233.307 176.784C233.668 174.499 236.073 173.898 237.877 174.018C239.802 174.379 241.004 176.784 241.365 178.709C241.365 178.829 241.485 179.19 241.485 179.31C241.605 179.911 242.568 179.911 242.808 179.31C244.371 174.62 240.884 169.448 235.833 170.05C228.737 170.531 227.775 177.987 229.098 183.639C229.82 186.045 228.858 188.209 227.535 190.254L227.294 190.614C226.693 191.336 227.655 192.298 228.377 191.817Z" fill="black"/>
<path d="M132.168 162.353C130.364 170.892 126.997 178.829 122.787 186.285C119.059 195.425 128.68 204.084 137.219 203.723C138.181 203.723 138.301 202.4 137.459 202.16C132.047 200.476 127.117 196.868 126.275 191.336C125.914 189.652 126.395 188.209 127.237 186.766C131.206 179.31 133.611 170.771 133.01 162.353C133.01 161.752 132.168 161.752 132.168 162.353Z" fill="black"/>
<path d="M220.079 175.221C222.845 168.126 228.858 161.391 236.915 161.511C237.637 161.391 238.839 161.631 239.561 161.631C241.605 161.752 243.289 162.473 244.852 163.916C252.549 171.613 251.226 185.203 244.973 193.741C242.808 196.748 240.042 199.394 236.915 201.558C233.788 203.723 230.301 205.407 226.573 206.85C225.731 207.09 226.092 208.413 226.933 208.293C234.991 206.609 242.688 202.641 247.979 196.026C256.157 186.165 257.841 169.689 248.099 160.068C245.935 158.144 242.928 156.701 239.922 156.701C238.96 156.701 237.516 156.46 236.554 156.701C231.503 156.941 226.693 159.467 223.566 163.435C220.8 166.803 219.237 170.892 218.756 174.98C218.756 175.702 219.838 175.943 220.079 175.221Z" fill="black"/>
<path d="M141.307 215.749C149.004 223.085 163.556 217.192 167.404 208.293C167.885 207.21 166.682 206.248 165.72 206.729C163.676 207.812 161.872 208.894 159.948 209.736C154.416 212.261 148.643 214.306 142.51 213.705C141.307 213.464 140.465 214.907 141.307 215.749Z" fill="black"/>
<path d="M177.025 174.62C179.911 174.499 182.076 172.094 181.835 169.208L181.715 165.841C181.595 162.954 179.189 160.79 176.303 161.03C173.417 161.15 171.252 163.556 171.493 166.442L171.613 169.809C171.733 172.575 174.138 174.74 177.025 174.62Z" fill="black"/>
<path d="M126.395 176.424C129.041 176.303 131.085 174.018 130.965 171.373L130.845 168.246C130.724 165.6 128.439 163.556 125.794 163.676C123.148 163.796 121.103 166.081 121.224 168.727L121.344 171.854C121.464 174.499 123.749 176.544 126.395 176.424Z" fill="black"/>
<path d="M166.201 168.126C170.17 165.48 174.499 163.676 179.31 164.638C180.873 164.878 182.436 165.36 183.398 166.442C183.759 166.923 184.601 166.803 184.601 166.081C184.481 163.676 182.436 162.112 180.512 161.15C176.784 159.226 171.613 159.587 168.246 162.112C167.043 162.834 162.954 167.284 165.119 168.246C165.6 168.486 165.84 168.366 166.201 168.126Z" fill="black"/>
<path d="M131.806 168.727C131.806 163.676 125.553 161.872 121.704 163.676C119.54 164.638 117.976 166.562 117.375 168.847C117.134 169.569 118.217 170.17 118.698 169.569C120.742 167.163 124.23 165.961 126.996 167.404C127.838 167.885 127.958 168.246 128.199 168.727C128.199 171.132 131.686 171.012 131.806 168.727Z" fill="black"/>
<path d="M160.428 148.282C157.903 149.124 155.378 146.839 155.859 144.073C156.099 142.63 156.7 141.187 157.903 140.105C161.511 136.858 176.423 133.971 185.443 138.18C193.38 142.029 171.974 144.434 160.428 148.282Z" fill="black"/>
<path d="M124.47 150.207C126.514 150.928 128.679 148.763 128.318 146.238C128.198 144.915 127.717 143.592 126.755 142.63C123.869 139.744 114.007 137.459 107.754 141.909C102.342 145.637 115.089 146.719 124.47 150.207Z" fill="black"/>
<path d="M94.766 109.558C86.5882 102.463 74.5621 91.7594 86.949 76.847C99.3359 61.9345 122.186 67.7071 122.186 67.7071C122.186 67.7071 117.375 53.9973 130.724 49.0666C146.839 43.1738 192.539 60.9724 192.539 60.9724C195.906 60.8522 199.153 60.7319 202.159 60.7319C241.605 59.8901 253.03 84.7842 253.511 107.153C253.511 107.153 266.86 111.603 270.227 132.889C271.31 139.744 272.392 148.523 269.746 159.106C262.651 187.969 243.529 208.052 231.383 218.274C226.813 214.907 234.871 210.217 234.269 204.685C260.366 191.937 254.714 161.03 240.763 159.226C230.06 157.903 224.408 164.157 221.762 169.208C220.68 170.651 235.111 90.196 151.89 116.533C135.414 121.704 118.457 126.274 106.912 117.976C105.59 120.502 104.748 123.508 104.507 127.958C104.507 127.958 84.4235 120.141 87.43 111.963C88.3921 109.197 94.766 109.558 94.766 109.558Z" fill="black"/>
<path d="M157.903 189.412C157.903 189.412 169.207 196.507 181.955 196.387C194.703 196.267 196.266 186.285 196.386 180.873C196.386 180.873 194.703 188.69 187.006 191.576C179.43 194.463 157.903 189.412 157.903 189.412Z" fill="black"/>
<path d="M121.585 188.089C121.585 188.089 118.819 191.456 115.091 193.861C112.565 195.545 109.198 193.741 109.198 190.735C109.198 190.735 116.173 191.095 121.585 188.089Z" fill="black"/>
<path d="M153.695 157.302C160.189 156.701 176.544 155.378 182.798 154.776L187.608 154.416C191.577 154.175 194.704 157.542 195.425 161.391C195.666 162.593 195.666 164.638 195.666 165.841V170.771C195.666 173.778 195.786 176.905 194.704 179.791C192.779 186.525 186.646 191.937 179.43 191.095C178.709 190.975 174.259 190.494 173.417 190.374L163.676 189.291C160.549 189.051 157.663 188.209 154.897 186.525C151.049 184.241 147.321 180.753 147.561 175.822L147.321 171.012C147.08 164.999 145.396 157.903 153.695 157.302ZM153.334 153.333C147.681 153.814 143.833 159.707 144.194 165.119C144.194 165.841 144.434 170.41 144.555 171.252C144.555 172.214 144.795 176.544 144.915 177.386C145.517 185.563 154.657 191.336 162.113 192.418C165.961 192.899 174.019 193.982 177.867 194.463C178.829 194.583 180.152 194.703 181.114 194.824C181.595 194.824 182.678 194.703 183.159 194.703C193.381 193.38 199.875 182.918 199.634 173.176C199.634 171.613 199.634 167.524 199.634 165.841C199.634 164.999 199.634 162.834 199.514 161.992C199.153 157.783 196.868 153.694 193.02 151.409C191.336 150.447 189.292 149.966 187.247 150.086L182.317 150.567C176.304 151.289 159.708 152.852 153.334 153.333Z" fill="black"/>
<path d="M125.433 155.258C122.787 154.897 109.799 153.454 107.394 153.213C106.792 153.213 105.229 152.973 104.748 152.973C99.5767 152.251 97.1715 157.903 96.6904 162.112C96.4499 165.841 96.6904 169.448 96.5702 173.056C96.5702 175.582 96.8107 178.107 97.412 180.512C98.9754 187.007 103.545 193.861 111.122 191.697C112.926 191.336 116.534 190.855 118.217 190.494L120.021 190.133C123.509 189.532 126.395 187.127 128.319 184.481C131.927 180.272 131.205 174.62 131.566 169.569C132.047 164.518 131.927 156.701 125.433 155.258ZM124.952 158.745C128.68 160.429 127.718 166.081 127.718 169.448L127.477 176.664C127.357 181.234 123.749 185.804 119.42 187.007C118.337 187.247 115.331 187.848 114.128 188.089L110.641 188.81C101.982 191.576 98.6146 179.55 98.7349 172.936C99.0957 167.404 97.412 160.79 101.381 156.34C102.343 155.378 103.305 155.137 104.387 155.378C104.988 155.498 106.552 155.739 107.033 155.859C109.438 156.34 122.426 158.384 124.952 158.745Z" fill="black"/>
<path d="M197.71 166.442C198.672 168.607 199.514 168.366 201.198 168.366L204.685 168.246C209.135 168.005 214.066 167.644 218.515 167.043C220.92 166.682 223.446 166.322 225.851 165.72C226.813 165.48 227.415 164.518 227.174 163.556C226.933 162.714 226.212 162.112 225.37 162.233L218.395 162.593L211.42 162.834C209.135 162.954 203.242 163.075 200.957 163.195C199.754 163.195 198.672 163.315 197.469 162.954C196.988 162.834 196.507 163.075 196.387 163.556C196.267 163.796 196.387 163.916 196.387 164.157L197.71 166.442Z" fill="black"/>
<path d="M146.478 163.916C142.149 161.511 130.724 158.144 128.56 164.638C127.597 166.322 130.123 167.885 131.205 166.201C131.205 166.442 131.807 166.201 132.047 166.201C136.617 165.841 141.307 166.562 145.877 166.923C147.801 167.163 148.162 164.638 146.478 163.916Z" fill="black"/>
</g>
</svg>
