<svg width="50" height="50" viewBox="0 0 50 50" fill="none" xmlns="http://www.w3.org/2000/svg">
<path d="M25 49C38.2548 49 49 38.2548 49 25C49 11.7452 38.2548 1 25 1C11.7452 1 1 11.7452 1 25C1 38.2548 11.7452 49 25 49Z" fill="#131415" stroke="#131415" stroke-width="0.270121"/>
<g clip-path="url(#clip0_59_2906)">
<path d="M16.2727 37.4125V24.8396L12.4383 21.2723L9 19.2927V35.1938C9 36.4215 9.97818 37.4125 11.1818 37.4125H16.2727Z" fill="white"/>
<path d="M33.7273 37.4125H38.8182C40.0254 37.4125 41 36.4178 41 35.1938V19.2927L37.1055 21.5603L33.7273 24.8396V37.4125Z" fill="white"/>
<path d="M16.2727 24.8396L15.751 19.927L16.2727 15.225L25 21.8813L33.7273 15.225L34.3109 19.6731L33.7273 24.8396L25 31.4959L16.2727 24.8396Z" fill="white"/>
<path d="M33.7273 15.225V24.8396L41 19.2927V16.3344C41 13.5906 37.92 12.0263 35.7636 13.6719L33.7273 15.225Z" fill="white"/>
<path d="M9 19.2927L12.3449 21.8438L16.2727 24.8396V15.225L14.2364 13.6719C12.0764 12.0263 9 13.5906 9 16.3344V19.2927Z" fill="white"/>
</g>
<defs>
<clipPath id="clip0_59_2906">
<rect width="32" height="24.5333" fill="white" transform="translate(9 13)"/>
</clipPath>
</defs>
</svg>
