<svg width="50" height="50" viewBox="0 0 50 50" fill="none" xmlns="http://www.w3.org/2000/svg">
<path d="M25 49C38.2548 49 49 38.2548 49 25C49 11.7452 38.2548 1 25 1C11.7452 1 1 11.7452 1 25C1 38.2548 11.7452 49 25 49Z" fill="#131415" stroke="#131415" stroke-width="0.270121"/>
<path fill-rule="evenodd" clip-rule="evenodd" d="M14.099 19.5652C12.0167 22.2717 10.0202 25.6279 10.0002 28.1366C9.99237 29.0804 10.2646 29.9045 10.9177 30.5286C11.8576 31.4275 12.8932 31.7444 13.9237 31.7463C15.4296 31.7486 16.925 31.0762 18.0959 30.5577C20.0678 29.685 41.8652 19.2088 41.8652 19.2088C42.0755 19.0922 42.0361 18.9469 41.7729 19.0195C41.6666 19.0488 18.043 26.1342 18.043 26.1342C17.5955 26.2743 17.1332 26.3476 16.6682 26.3521C14.8526 26.364 13.2371 25.2487 13.2502 22.8984C13.2552 21.9787 13.5096 20.8697 14.099 19.5652Z" fill="white" fill-opacity="0.96"/>
</svg>
