<svg width="50" height="50" viewBox="0 0 50 50" fill="none" xmlns="http://www.w3.org/2000/svg">
<path d="M25 49C38.2548 49 49 38.2548 49 25C49 11.7452 38.2548 1 25 1C11.7452 1 1 11.7452 1 25C1 38.2548 11.7452 49 25 49Z" fill="#131415" stroke="#131415" stroke-width="0.270121"/>
<path d="M40.9952 32.4998C40.9994 33.886 40.3418 34.7007 39.3794 35.2722C37.241 36.5419 35.0882 37.7854 32.9203 39.0036C31.345 39.8883 29.7435 39.4207 28.8107 37.8251C27.2007 35.0721 25.6136 32.3065 24.0172 29.5459C22.6032 27.1019 21.1908 24.6562 19.7742 22.2139C19.3698 21.5174 19.0904 20.7956 19.2609 19.9708C19.45 19.0548 20.019 18.3972 20.7898 17.943C22.9442 16.6741 25.113 15.4281 27.2928 14.2031C28.9128 13.2922 30.4873 13.7472 31.4286 15.3664C33.2428 18.4883 35.0477 21.6153 36.8569 24.7398C38.054 26.8064 39.2528 28.8722 40.4482 30.9397C40.7597 31.4791 41.0324 32.0329 40.9969 32.5006L40.9952 32.4998ZM34.7455 25.1855C34.5252 24.7212 34.1638 24.4738 33.6978 24.4181C33.2546 24.3658 32.8418 24.3295 32.6459 23.8314C32.6122 23.7453 32.4231 23.7208 32.3066 23.6676C32.2719 23.7917 32.2264 23.9133 32.2061 24.0399C32.1968 24.0982 32.2365 24.1648 32.2593 24.2442C31.7401 24.2569 31.2336 24.3168 31.025 23.6946C31.0048 23.6347 30.9398 23.5807 30.8832 23.5427C30.662 23.3949 30.5354 23.4802 30.5143 23.7242C30.5059 23.8255 30.5497 23.931 30.5759 24.0627C29.757 24.0163 28.9272 24.0998 28.5768 23.1121C28.4899 22.8681 28.3016 22.6562 28.1429 22.4427C28.0095 22.2628 27.8677 22.0813 27.6963 21.9412C27.5908 21.8551 27.3569 21.7664 27.2987 21.8162C27.1957 21.9049 27.1273 22.105 27.1459 22.2451C27.1763 22.4764 27.2683 22.706 27.3696 22.9188C27.5739 23.3493 27.8061 23.7672 28.0179 24.1944C28.0711 24.3025 28.1539 24.4485 28.1201 24.538C27.9555 24.9753 27.7562 25.3999 27.6001 25.7587C27.3755 25.6751 27.2109 25.6144 27.0454 25.5527C27.0344 25.7174 26.9509 25.9385 27.026 26.0373C27.4202 26.554 27.0834 26.9389 26.8656 27.3788C26.7829 27.2927 26.7347 27.215 26.6647 27.1753C26.5794 27.1264 26.4764 27.1078 26.381 27.0765C26.3456 27.1871 26.2949 27.2952 26.2797 27.4092C26.2713 27.47 26.3093 27.5518 26.3523 27.6016C26.6182 27.9073 26.5296 28.1943 26.3717 28.5244C26.083 29.1271 26.1303 29.5459 26.4857 29.9874C26.5777 29.8557 26.6579 29.7265 26.7516 29.6083C27.4388 28.738 28.1125 27.8566 28.825 27.0065C29.1484 26.6207 29.3028 26.6384 29.6355 27.0293C29.9166 27.3594 30.1133 27.7663 30.4138 28.0744C31.0385 28.7152 31.031 29.361 30.5447 30.0558C30.2838 30.4289 30.4324 30.7548 30.6553 31.1153C30.9415 30.7978 31.1871 30.4897 31.4725 30.2246C31.6067 30.0997 31.8161 30.0549 31.9917 29.9739L32.071 30.0828V29.7569C32.5911 29.6278 33.0976 29.502 33.6126 29.3737C33.4091 28.9735 33.1558 28.7422 32.7067 28.7717C32.4585 28.7878 32.2019 28.743 31.9554 28.6941C31.8 28.6628 31.5772 28.6122 31.5214 28.5016C31.1745 27.8135 30.8486 27.1128 30.5523 26.402C30.4248 26.0964 30.5481 25.8558 30.9085 25.7849C31.1838 25.7309 31.4531 25.6456 31.73 25.6051C32.7143 25.4616 33.7004 25.3307 34.7472 25.1872L34.7455 25.1855Z" fill="white"/>
<path d="M25.7039 34.5504C24.5575 35.1996 23.4752 35.8876 22.3288 36.4431C20.9535 37.1092 19.4567 36.5284 18.5982 35.0806C17.7886 33.7155 17.0026 32.336 16.2074 30.9625C14.0124 27.1694 11.82 23.3738 9.62333 19.5825C9.22148 18.8894 8.89815 18.1693 9.02985 17.3487C9.17674 16.4369 9.68158 15.7253 10.4675 15.2626C12.6473 13.982 14.8321 12.7072 17.0414 11.478C18.6716 10.5713 20.1431 10.969 21.1418 12.5476C21.7471 13.5058 22.2908 14.5028 22.88 15.5125C22.5905 15.6839 22.3397 15.8308 22.0485 16.0039C21.9565 15.8612 21.8712 15.7396 21.7969 15.6121C21.3528 14.8464 20.9257 14.0706 20.4614 13.3176C20.2655 12.9993 20.0266 12.6895 19.748 12.443C19.1798 11.9406 18.507 11.836 17.8283 12.1863C17.0431 12.5907 16.2859 13.0483 15.4822 13.5016C15.5649 13.6595 15.6291 13.7937 15.7034 13.922C16.5822 15.4424 17.4593 16.9637 18.3466 18.4782C18.4918 18.7256 18.5306 18.9291 18.4184 19.2178C17.9709 20.3701 18.1474 21.4761 18.7577 22.5305C20.9881 26.3843 23.2177 30.239 25.4481 34.0928C25.525 34.2262 25.6001 34.3613 25.7056 34.5496L25.7039 34.5504ZM24.3456 34.2153C20.588 27.7207 16.8709 21.2954 13.142 14.8515C12.3712 15.3006 11.6478 15.705 10.9454 16.1423C10.7124 16.2875 10.5013 16.496 10.3384 16.7172C9.80821 17.4365 9.94413 18.1634 10.362 18.8852C12.0808 21.8517 13.7963 24.82 15.5126 27.7874C16.8211 30.0499 18.1263 32.3132 19.4399 34.5724C19.9818 35.5044 20.8438 35.9628 21.6762 35.6158C22.5879 35.2359 23.4355 34.7007 24.3456 34.2144V34.2153Z" fill="white"/>
</svg>
